<?xml version="1.0" encoding="utf-8"?>
<!-- Generator: Adobe Illustrator 16.0.0, SVG Export Plug-In . SVG Version: 6.00 Build 0)  -->
<svg version="1.2" baseProfile="tiny" id="圖層_1"
	 xmlns="http://www.w3.org/2000/svg" xmlns:xlink="http://www.w3.org/1999/xlink" x="0px" y="0px" width="22px" height="42px"
	 viewBox="0 0 22 42" xml:space="preserve">
<g>
	<path fill="#DBDBDB" d="M15,13c-0.256,0-0.512-0.098-0.707-0.293L11,9.414l-3.293,3.293c-0.391,0.391-1.023,0.391-1.414,0
		s-0.391-1.023,0-1.414l4-4c0.391-0.391,1.023-0.391,1.414,0l4,4c0.391,0.391,0.391,1.023,0,1.414C15.512,12.902,15.256,13,15,13z"
		/>
</g>
<g>
	<path fill="#DBDBDB" d="M7,28.5c0.256,0,0.512,0.098,0.707,0.293L11,32.086l3.293-3.293c0.391-0.391,1.023-0.391,1.414,0
		s0.391,1.023,0,1.414l-4,4c-0.391,0.391-1.023,0.391-1.414,0l-4-4c-0.391-0.391-0.391-1.023,0-1.414
		C6.488,28.598,6.744,28.5,7,28.5z"/>
</g>
</svg>
